<?xml version="1.0" standalone="no"?><!DOCTYPE svg PUBLIC "-//W3C//DTD SVG 1.1//EN" "http://www.w3.org/Graphics/SVG/1.1/DTD/svg11.dtd"><svg class="icon" width="200px" height="200.00px" viewBox="0 0 1024 1024" version="1.1" xmlns="http://www.w3.org/2000/svg"><path d="M1010.497164 673.838545s-49.128727 90.065455-134.050909 140.544c-84.968727 50.408727-149.573818 79.243636-285.323637 91.857455 0 0-57.227636 4.514909-144.034909-2.699636l-5.585454-149.876364s254.882909-49.803636 362.914909-109.242182c108.008727-59.461818 166.772364-71.493818 189.858909-119.226182 23.086545-47.732364 29.067636-55.621818 29.067636-55.621818l-12.846545 204.264727zM41.583709 612.258909l-40.494545-221.184L0.041891 372.363636l119.109818 124.090182 249.832727 106.426182 13.288728 205.125818c-287.138909-34.909091-340.689455-195.746909-340.689455-195.746909z" fill="#2F2F31" /><path d="M909.190982 661.178182c-180.293818 130.769455-467.665455 92.462545-467.665455 92.462545l93.44-319.488 467.269818-47.639272s87.249455 143.848727-93.044363 274.664727z" fill="#00A2FF" /><path d="M368.984436 626.152727S-4.566109 591.197091 0.041891 366.615273c0 0 6.749091-197.306182 407.761454-245.76 140.544-16.989091 288.488727 17.524364 374.504728 55.226182 109.800727 48.104727 138.705455 104.936727 138.705454 104.936727L477.1328 322.443636l-108.171636 303.709091z" fill="#999999" /></svg>