<?xml version="1.0" standalone="no"?><!DOCTYPE svg PUBLIC "-//W3C//DTD SVG 1.1//EN" "http://www.w3.org/Graphics/SVG/1.1/DTD/svg11.dtd"><svg class="icon" width="200px" height="200.00px" viewBox="0 0 1024 1024" version="1.1" xmlns="http://www.w3.org/2000/svg"><path d="M512 512m-416 0a416 416 0 1 0 832 0 416 416 0 1 0-832 0Z" fill="#AEECFF" /><path d="M752 512L580.032 604.032 312 512 102.656 583.872A415.744 415.744 0 0 0 512 928a415.808 415.808 0 0 0 408.96-341.376L752 512z" fill="#01ADDB" /><path d="M289.728 863.232L312 512 102.656 583.872a415.552 415.552 0 0 0 187.072 279.36zM767.616 839.744L752 512 581.248 604.032l-8.768 319.104a412.864 412.864 0 0 0 195.136-83.392z" fill="#009BC4" /><path d="M759.488 40c-105.984 0-192 85.952-192 192s192 358.016 192 358.016 192-251.968 192-358.016-86.016-192-192-192z m0 254.144a68.48 68.48 0 1 1 0-136.96 68.48 68.48 0 0 1 0 136.96z" fill="#38A4FE" /><path d="M759.488 603.2l-6.4-8.32c-7.872-10.368-193.6-255.36-193.6-362.88C559.488 121.728 649.216 32 759.488 32s200 89.728 200 200c0 107.52-185.728 352.512-193.6 362.88l-6.4 8.32z m0-555.2a184.256 184.256 0 0 0-184 184c0 91.392 150.848 299.968 184 344.64 33.152-44.672 184-253.248 184-344.64A184.256 184.256 0 0 0 759.488 48z m0 254.144c-42.176 0-76.48-34.304-76.48-76.48s34.304-76.48 76.48-76.48 76.48 34.304 76.48 76.48-34.304 76.48-76.48 76.48z m0-137.024a60.544 60.544 0 0 0 0 120.96 60.544 60.544 0 0 0 0-120.96z" fill="#FFFFFF" /><path d="M102.528 582.976c4.352 25.536 11.136 50.176 19.968 73.92l187.52-59.328 270.4 75.264 0.896-68.864L312 512 102.528 582.976z" fill="#429E2F" /><path d="M897.408 668.096l-138.432-26.752-185.024 89.024-276.8-42.24-142.912 35.328c6.144 10.368 12.608 20.416 19.584 30.208l122.816-32.256 275.328 41.984 188.992-88 122.368 23.36c5.12-9.984 9.856-20.096 14.08-30.656z" fill="#FFFFFF" /><path d="M415.232 916.224c6.464 1.472 12.864 3.072 19.456 4.288l8-360.128-18.688-6.848-8.768 362.688z" fill="#FFFFFF" /><path d="M760.256 662.016m-40 0a40 40 0 1 0 80 0 40 40 0 1 0-80 0Z" fill="#FC354D" /><path d="M825.088 785.344c8.896-10.112 17.216-20.672 25.088-31.616l-90.112-14.4-118.016 54.656 1.664 112.384c12.864-4.224 25.408-9.216 37.696-14.656l-1.344-77.76 84.032-36.032 60.992 7.424z" fill="#39BEE9" /><path d="M817.984 540.736L832 655.36l65.408 12.736c10.752-26.56 18.688-54.528 23.808-83.52l-103.232-43.84z" fill="#F5F9C7" /></svg>