<?xml version="1.0" standalone="no"?><!DOCTYPE svg PUBLIC "-//W3C//DTD SVG 1.1//EN" "http://www.w3.org/Graphics/SVG/1.1/DTD/svg11.dtd"><svg class="icon" width="200px" height="200.00px" viewBox="0 0 1024 1024" version="1.1" xmlns="http://www.w3.org/2000/svg"><path d="M503.466667 439.466667v-2.133334 2.133334z m164.266666 179.2z m4.266667 0h-4.266667s0 2.133333 4.266667 0zM512 85.333333C277.333333 85.333333 85.333333 277.333333 85.333333 512s192 426.666667 426.666667 426.666667 426.666667-192 426.666667-426.666667c0-236.8-192-426.666667-426.666667-426.666667z m273.066667 166.4c-14.933333 0-25.6 0-36.266667 8.533334-4.266667 4.266667-8.533333 8.533333-14.933333 8.533333-6.4 2.133333-10.666667 0-17.066667 2.133333-19.2 6.4-17.066667 49.066667-42.666667 42.666667-12.8-2.133333-21.333333-17.066667-25.6-25.6-4.266667-8.533333-14.933333-14.933333-8.533333-25.6h-8.533333c4.266667-8.533333 17.066667-8.533333 19.2-12.8 6.4-10.666667-14.933333-12.8-21.333334-14.933333 6.4-8.533333 10.666667 2.133333 19.2 0 6.4-2.133333-4.266667-10.666667-8.533333-12.8-2.133333 0-25.6 6.4-12.8-6.4-17.066667-10.666667-34.133333-21.333333-51.2-34.133334-2.133333 12.8 23.466667 19.2 32 23.466667-2.133333 4.266667-8.533333 12.8-14.933333 10.666667-6.4-2.133333-4.266667-10.666667-12.8-10.666667-6.4 14.933333 12.8 10.666667 14.933333 19.2 2.133333 10.666667-6.4 6.4-10.666667 6.4 0 0-8.533333-6.4-8.533333-2.133333 0 6.4 10.666667 4.266667 10.666667 10.666666-12.8 0-19.2-4.266667-29.866667-10.666666-12.8-8.533333-19.2-6.4-34.133333-6.4 4.266667-2.133333 10.666667-2.133333 14.933333-6.4 2.133333-2.133333 10.666667-8.533333 10.666667-10.666667 2.133333-8.533333 0-6.4-8.533334-12.8-6.4-4.266667-14.933333-12.8-21.333333-14.933333-27.733333-4.266667-6.4 27.733333-29.866667 32h2.133334-2.133334c-4.266667 0-14.933333-2.133333-17.066666 2.133333-2.133333 2.133333-2.133333 8.533333-4.266667 10.666667-4.266667 4.266667-10.666667 6.4-17.066667 8.533333-4.266667 4.266667-17.066667 12.8-19.2 19.2-10.666667 21.333333 25.6 27.733333 40.533334 34.133333 6.4 2.133333 25.6 6.4 27.733333 10.666667 4.266667 6.4-4.266667 12.8 6.4 17.066667 2.133333 2.133333 8.533333 2.133333 12.8-2.133334 4.266667-4.266667-2.133333-6.4-2.133333-10.666666-2.133333-10.666667 2.133333-6.4 6.4-10.666667 10.666667-8.533333 8.533333-8.533333 4.266666-21.333333-2.133333-6.4-8.533333-23.466667-2.133333-27.733334 8.533333-6.4 25.6 4.266667 32 4.266667 6.4 0 10.666667 10.666667 14.933333 14.933333 2.133333 2.133333 6.4 8.533333 12.8 8.533334s4.266667-6.4 8.533334-10.666667c10.666667-8.533333 14.933333 2.133333 19.2 12.8 4.266667 10.666667 8.533333 12.8 14.933333 19.2 4.266667 2.133333 19.2 12.8 17.066667 19.2 0 4.266667-19.2 10.666667-23.466667 12.8-17.066667 6.4-49.066667-8.533333-53.333333 19.2 6.4-2.133333 25.6-17.066667 32-10.666667 2.133333 4.266667-2.133333 8.533333 0 10.666667 4.266667 10.666667 10.666667 6.4 19.2 4.266667h-2.133334c10.666667-6.4 10.666667-4.266667 14.933334-12.8 2.133333-2.133333 4.266667-10.666667 6.4-12.8 8.533333-6.4 8.533333-2.133333 14.933333 4.266666 2.133333 2.133333 12.8 19.2 8.533333 17.066667-19.2 2.133333-32 2.133333-42.666666 10.666667-6.4 4.266667-12.8 10.666667-21.333334 12.8-2.133333 0-17.066667 2.133333-14.933333 0 2.133333-4.266667 10.666667-6.4 14.933333-10.666667-8.533333-4.266667-17.066667 4.266667-23.466666 8.533333-8.533333 4.266667-8.533333 10.666667-17.066667 17.066667-2.133333 2.133333-8.533333 2.133333-10.666667 6.4-2.133333 4.266667-2.133333 8.533333-6.4 12.8-2.133333 2.133333-6.4 0-8.533333 4.266667-2.133333 4.266667 2.133333 8.533333 2.133333 10.666666-2.133333 6.4-12.8 10.666667-17.066666 14.933334l2.133333-2.133334-12.8 12.8c2.133333 6.4 6.4 23.466667 4.266667 27.733334-4.266667 12.8-12.8-6.4-17.066667-12.8-12.8-17.066667-36.266667-6.4-51.2-4.266667-21.333333 2.133333-40.533333 27.733333-27.733333 51.2 6.4 10.666667 17.066667 14.933333 27.733333 12.8 10.666667-2.133333 12.8-17.066667 23.466667-17.066667 17.066667 0 0 17.066667-2.133334 23.466667-2.133333 6.4 2.133333 6.4 8.533334 8.533333 4.266667 2.133333 10.666667-2.133333 14.933333 0 2.133333 2.133333 2.133333 10.666667 6.4 8.533334-6.4 6.4-6.4 19.2 2.133333 23.466666 8.533333 6.4 17.066667 0 25.6 2.133334 14.933333 4.266667 8.533333-2.133333 21.333334-8.533334 8.533333-6.4 10.666667 0 17.066666 2.133334 4.266667 0 6.4-6.4 14.933334-4.266667 6.4 2.133333 8.533333 6.4 14.933333 6.4 2.133333 0 6.4-2.133333 8.533333 0 12.8 2.133333 23.466667 10.666667 34.133334 17.066667 8.533333 6.4 14.933333 4.266667 23.466666 8.533333 6.4 2.133333 21.333333 12.8 19.2 21.333333 0 2.133333-6.4 10.666667-8.533333 12.8 2.133333 2.133333 14.933333-2.133333 19.2-2.133333-2.133333 2.133333-10.666667 8.533333-10.666667 4.266667 0 2.133333 6.4 4.266667 8.533334 6.4 4.266667-14.933333 12.8-4.266667 21.333333-2.133334s17.066667 4.266667 25.6 4.266667c6.4 2.133333 21.333333 6.4 27.733333 12.8 6.4 6.4 2.133333 17.066667-2.133333 25.6-6.4 8.533333-14.933333 12.8-19.2 23.466667-2.133333 8.533333 0 17.066667-2.133333 25.6-2.133333 12.8-4.266667 8.533333-12.8 14.933333-6.4 6.4 0 4.266667-8.533334 8.533333s-17.066667 2.133333-23.466666 12.8v-2.133333c-2.133333 4.266667-4.266667 10.666667-4.266667 14.933333-4.266667 6.4-8.533333 10.666667-12.8 14.933334-2.133333 2.133333-19.2 25.6-21.333333 25.6-2.133333-2.133333-14.933333 2.133333-17.066667-2.133334 0 2.133333 0 2.133333 4.266667 4.266667-4.266667 19.2-12.8 23.466667-32 23.466667 2.133333 10.666667-6.4 8.533333-10.666667 12.8-2.133333 2.133333-4.266667 10.666667-4.266667 14.933333 0 2.133333-8.533333 12.8-8.533333 14.933333 0 2.133333 2.133333 4.266667 4.266667 6.4-14.933333 2.133333-27.733333 4.266667-42.666667 6.4 2.133333-4.266667 4.266667-6.4-4.266667-6.4 2.133333-6.4 8.533333-10.666667 10.666667-14.933333 2.133333-2.133333 0-4.266667 2.133333-6.4 2.133333-10.666667 2.133333-6.4 0-12.8-4.266667-17.066667 2.133333-23.466667 6.4-38.4 4.266667-17.066667 4.266667-38.4 8.533334-57.6 2.133333-8.533333 4.266667-25.6 0-34.133333-4.266667-8.533333-19.2-17.066667-25.6-23.466667-10.666667-8.533333-14.933333-19.2-21.333334-29.866667-4.266667-6.4-8.533333-10.666667-10.666666-17.066666-6.4-12.8 0-4.266667 0-12.8 0-6.4 0-12.8 2.133333-21.333334 4.266667-8.533333 10.666667-12.8 12.8-21.333333 2.133333-8.533333 0-17.066667-6.4-19.2-4.266667-2.133333-8.533333 2.133333-12.8 2.133333-6.4 0-12.8-6.4-17.066667-8.533333-6.4-4.266667-8.533333-12.8-17.066666-19.2-6.4-4.266667-10.666667-2.133333-17.066667-4.266667-6.4-2.133333-10.666667-10.666667-17.066667-12.8-8.533333-4.266667-12.8 2.133333-21.333333 0-6.4 0-19.2-8.533333-25.6-12.8-12.8-6.4-21.333333-12.8-27.733333-27.733333-4.266667-12.8-10.666667-17.066667-19.2-27.733333s-10.666667-19.2-23.466667-21.333334c-2.133333 0 2.133333 10.666667 4.266667 10.666667 4.266667 8.533333 10.666667 14.933333 17.066666 23.466667 8.533333 10.666667 4.266667 12.8-4.266666 2.133333-8.533333-12.8-19.2-25.6-27.733334-38.4-2.133333-4.266667-2.133333-8.533333-8.533333-12.8-4.266667-4.266667-10.666667-6.4-17.066667-10.666667-17.066667-14.933333-21.333333-36.266667-19.2-59.733333 0-6.4 4.266667-12.8 2.133334-21.333333 0-6.4-4.266667-10.666667-8.533334-14.933334-2.133333-2.133333-4.266667-8.533333-4.266666-8.533333-4.266667-6.4-6.4-12.8-12.8-19.2-4.266667-2.133333-12.8-10.666667-21.333334-17.066667 40.533333-49.066667 91.733333-89.6 151.466667-113.066666 0 2.133333 2.133333 6.4 4.266667 8.533333 4.266667 6.4 10.666667 6.4 19.2 8.533333 0 10.666667-14.933333 10.666667-23.466667 10.666667-10.666667-2.133333-21.333333-4.266667-29.866667 4.266667 4.266667 2.133333 19.2 14.933333 17.066667 2.133333h29.866667c4.266667 0 17.066667 4.266667 21.333333 2.133333 2.133333 0 2.133333-8.533333 4.266667-10.666666-2.133333 0-6.4-2.133333-8.533334-2.133334 6.4-8.533333 12.8-2.133333 21.333334 2.133334-8.533333 6.4-4.266667 19.2 4.266666 8.533333 6.4-8.533333-2.133333-14.933333-10.666666-21.333333 8.533333-12.8 14.933333-12.8 23.466666 0 2.133333-8.533333 8.533333-4.266667 14.933334-4.266667V170.666667c-4.266667 0-8.533333-2.133333-10.666667 0 6.4-10.666667 2.133333-12.8 12.8-17.066667 8.533333-4.266667 29.866667-2.133333 34.133333-8.533333-17.066667 2.133333-36.266667 4.266667-49.066666 10.666666-6.4 2.133333-12.8 12.8-19.2 6.4-6.4-6.4 4.266667-17.066667 10.666666-21.333333h-2.133333c25.6-6.4 51.2-8.533333 78.933333-8.533333 17.066667 0 34.133333 2.133333 51.2 4.266666-6.4 2.133333-2.133333 4.266667-6.4 8.533334-8.533333 6.4-23.466667 10.666667-32 14.933333 12.8 0 42.666667 10.666667 46.933334-6.4-4.266667 0-8.533333-2.133333-12.8-2.133333 6.4-4.266667 14.933333-8.533333 23.466666-12.8 78.933333 17.066667 149.333333 57.6 200.533334 113.066666z m68.266666 149.333334c0-2.133333 2.133333-2.133333 2.133334-4.266667 2.133333-2.133333 2.133333-4.266667 2.133333-6.4 2.133333-2.133333 4.266667-2.133333 6.4-4.266667l2.133333-2.133333c6.4 17.066667 10.666667 36.266667 14.933334 53.333333 0 0-6.4 2.133333-8.533334 2.133334-4.266667 0-8.533333-2.133333-10.666666-6.4-2.133333-2.133333-6.4-6.4-8.533334-10.666667-2.133333-4.266667 0-8.533333 0-12.8 0 0-2.133333-4.266667 0-8.533333z m4.266667 196.266666c-6.4-6.4-14.933333-14.933333-21.333333-23.466666-6.4-8.533333-2.133333-17.066667-2.133334-27.733334 0-8.533333-4.266667-21.333333 0-27.733333 2.133333-4.266667 6.4-4.266667 6.4-8.533333 4.266667-6.4 2.133333-10.666667 6.4-14.933334 4.266667-6.4 10.666667-6.4 14.933334-10.666666 4.266667-4.266667 4.266667-8.533333 8.533333-14.933334 2.133333-4.266667 8.533333-10.666667 12.8-14.933333 2.133333 19.2 4.266667 38.4 4.266667 57.6 0 34.133333-4.266667 66.133333-12.8 98.133333-4.266667-4.266667-10.666667-8.533333-17.066667-12.8z" fill="#4C64FE" /><path d="M332.8 618.666667m-64 0a64 64 0 1 0 128 0 64 64 0 1 0-128 0Z" fill="#4C64FE" /><path d="M689.066667 454.4m-64 0a64 64 0 1 0 128 0 64 64 0 1 0-128 0Z" fill="#4C64FE" /><path d="M196.266667 454.4m-64 0a64 64 0 1 0 128 0 64 64 0 1 0-128 0Z" fill="#4C64FE" /><path d="M853.333333 224m-64 0a64 64 0 1 0 128 0 64 64 0 1 0-128 0Z" fill="#4C64FE" /><path d="M785.066667 369.066667m-42.666667 0a42.666667 42.666667 0 1 0 85.333333 0 42.666667 42.666667 0 1 0-85.333333 0Z" fill="#4C64FE" /><path d="M770.133333 565.333333m-42.666666 0a42.666667 42.666667 0 1 0 85.333333 0 42.666667 42.666667 0 1 0-85.333333 0Z" fill="#4C64FE" /><path d="M490.666667 243.2m-42.666667 0a42.666667 42.666667 0 1 0 85.333333 0 42.666667 42.666667 0 1 0-85.333333 0Z" fill="#4C64FE" /><path d="M544 509.866667m-42.666667 0a42.666667 42.666667 0 1 0 85.333334 0 42.666667 42.666667 0 1 0-85.333334 0Z" fill="#4C64FE" /><path d="M614.4 341.333333m-42.666667 0a42.666667 42.666667 0 1 0 85.333334 0 42.666667 42.666667 0 1 0-85.333334 0Z" fill="#4C64FE" /></svg>